<?xml version="1.0" encoding="utf-8"?>
<!DOCTYPE svg PUBLIC "-//W3C//DTD SVG 1.1//EN" "http://www.w3.org/Graphics/SVG/1.1/DTD/svg11.dtd">
<svg version="1.1" id="Layer_1" xmlns="http://www.w3.org/2000/svg" xmlns:xlink="http://www.w3.org/1999/xlink" x="0px" y="0px"
	 width="138px" height="34.912px" viewBox="0 0 138 34.912" enable-background="new 0 0 138 34.912" xml:space="preserve">
<g>
	<defs>
		<path id="SVGID_1_" d="M0,1.61v15.845v16.168c0,0.383,0.169,0.644,0.434,0.732l17.043-16.899L0.576,0.697
			C0.236,0.793,0,1.099,0,1.61"/>
	</defs>
	<clipPath id="SVGID_2_">
		<use xlink:href="#SVGID_1_"  overflow="visible"/>
	</clipPath>
	
		<linearGradient id="SVGID_3_" gradientUnits="userSpaceOnUse" x1="-27.1314" y1="41.3188" x2="-26.4146" y2="41.3188" gradientTransform="matrix(0 48.3592 -48.3592 0 2006.8865 1312.178)">
		<stop  offset="0" style="stop-color:#257CB0"/>
		<stop  offset="0.2863" style="stop-color:#4A93B5"/>
		<stop  offset="0.767" style="stop-color:#78BCBB"/>
		<stop  offset="1" style="stop-color:#89CFBD"/>
	</linearGradient>
	<rect x="0" y="0.697" clip-path="url(#SVGID_2_)" fill="url(#SVGID_3_)" width="17.478" height="33.658"/>
</g>
<g>
	<defs>
		<path id="SVGID_4_" d="M0.576,0.697l16.901,16.759l4.694-4.655l-7.055-4.073c0,0-0.028-0.016-0.081-0.047l-0.004-0.002
			c-0.007-0.004-0.014-0.008-0.022-0.012L1.471,0.85c-0.226-0.124-0.45-0.185-0.654-0.185C0.733,0.665,0.652,0.676,0.576,0.697"/>
	</defs>
	<clipPath id="SVGID_5_">
		<use xlink:href="#SVGID_4_"  overflow="visible"/>
	</clipPath>
	
		<linearGradient id="SVGID_6_" gradientUnits="userSpaceOnUse" x1="-26.3914" y1="41.9336" x2="-25.6747" y2="41.9336" gradientTransform="matrix(30.935 0 0 30.935 816.418 -1288.157)">
		<stop  offset="0" style="stop-color:#52C1AD"/>
		<stop  offset="1" style="stop-color:#DEE89A"/>
	</linearGradient>
	<rect x="0.576" y="0.665" clip-path="url(#SVGID_5_)" fill="url(#SVGID_6_)" width="21.596" height="16.791"/>
</g>
<g>
	<defs>
		<path id="SVGID_7_" d="M0.434,34.356c0.202,0.067,0.46,0.034,0.74-0.123l1.431-0.826c3.262-1.884,11.045-6.378,12.33-7.119
			l0.009-0.005c0.009-0.006,0.019-0.011,0.028-0.016l0.026-0.015c0.006-0.004,0.013-0.007,0.019-0.011l0.012-0.006
			c0.008-0.005,0.016-0.009,0.023-0.014l0.008-0.004c0.007-0.004,0.014-0.009,0.02-0.012l0.037-0.021l7.055-4.073l-4.694-4.654
			L0.434,34.356z"/>
	</defs>
	<clipPath id="SVGID_8_">
		<use xlink:href="#SVGID_7_"  overflow="visible"/>
	</clipPath>
	
		<linearGradient id="SVGID_9_" gradientUnits="userSpaceOnUse" x1="-27.273" y1="40.8626" x2="-26.5563" y2="40.8626" gradientTransform="matrix(0 24.3553 -24.3553 0 1006.5212 681.697)">
		<stop  offset="0" style="stop-color:#EC413D"/>
		<stop  offset="0.1668" style="stop-color:#DA4452"/>
		<stop  offset="0.5748" style="stop-color:#B0487A"/>
		<stop  offset="0.8619" style="stop-color:#954A92"/>
		<stop  offset="1" style="stop-color:#8A4A9D"/>
	</linearGradient>
	<rect x="0.434" y="17.456" clip-path="url(#SVGID_8_)" fill="url(#SVGID_9_)" width="21.737" height="16.967"/>
</g>
<g>
	<defs>
		<path id="SVGID_10_" d="M17.478,17.456l4.694,4.654l6.811-3.932c0.739-0.442,0.687-1.036,0.083-1.398l-0.046-0.027
			c-0.006-0.004-0.012-0.007-0.019-0.01c-0.672-0.362-6.829-3.943-6.829-3.943L17.478,17.456z"/>
	</defs>
	<clipPath id="SVGID_11_">
		<use xlink:href="#SVGID_10_"  overflow="visible"/>
	</clipPath>
	
		<linearGradient id="SVGID_12_" gradientUnits="userSpaceOnUse" x1="-27.1313" y1="40.4573" x2="-26.4146" y2="40.4573" gradientTransform="matrix(0 12.9888 -12.9888 0 549.0912 365.2045)">
		<stop  offset="0" style="stop-color:#F58879"/>
		<stop  offset="0.1194" style="stop-color:#F69079"/>
		<stop  offset="0.7128" style="stop-color:#FCB877"/>
		<stop  offset="1" style="stop-color:#FEC874"/>
	</linearGradient>
	<rect x="17.478" y="12.801" clip-path="url(#SVGID_11_)" fill="url(#SVGID_12_)" width="12.244" height="9.309"/>
</g>
<g>
	<defs>
		<rect id="SVGID_13_" x="0" y="0" width="138" height="34.912"/>
	</defs>
	<clipPath id="SVGID_14_">
		<use xlink:href="#SVGID_13_"  overflow="visible"/>
	</clipPath>
	<path clip-path="url(#SVGID_14_)" fill="#F9F9F9" d="M110.031,25.665c-0.657,0-1.255-0.121-1.798-0.363
		c-0.543-0.242-0.998-0.615-1.366-1.117h-0.11c0.073,0.589,0.11,1.147,0.11,1.674v4.148h-1.526V15.401h1.241l0.211,1.38h0.074
		c0.393-0.552,0.849-0.95,1.37-1.195c0.521-0.245,1.119-0.368,1.793-0.368c1.337,0,2.369,0.457,3.095,1.37
		c0.726,0.913,1.09,2.195,1.09,3.844c0,1.656-0.37,2.941-1.108,3.859C112.369,25.207,111.344,25.665,110.031,25.665 M109.81,16.514
		c-1.03,0-1.775,0.285-2.235,0.855c-0.459,0.571-0.696,1.478-0.708,2.723v0.34c0,1.417,0.236,2.43,0.708,3.04
		c0.472,0.61,1.23,0.915,2.271,0.915c0.872,0,1.554-0.352,2.047-1.057c0.493-0.705,0.74-1.676,0.74-2.916
		c0-1.256-0.247-2.221-0.74-2.893C111.401,16.849,110.706,16.514,109.81,16.514"/>
	<rect x="116.224" y="11.171" clip-path="url(#SVGID_14_)" fill="#F9F9F9" width="1.527" height="14.31"/>
	<path clip-path="url(#SVGID_14_)" fill="#F9F9F9" d="M126.528,25.481l-0.304-1.435h-0.073c-0.503,0.632-1.004,1.06-1.504,1.283
		c-0.5,0.224-1.123,0.336-1.871,0.336c-1,0-1.782-0.258-2.35-0.773c-0.568-0.515-0.851-1.247-0.851-2.198
		c0-2.035,1.628-3.102,4.883-3.2l1.712-0.056v-0.625c0-0.791-0.171-1.375-0.511-1.752c-0.34-0.377-0.884-0.565-1.632-0.565
		c-0.841,0-1.791,0.257-2.851,0.773l-0.469-1.168c0.497-0.269,1.041-0.481,1.633-0.634c0.591-0.153,1.184-0.23,1.779-0.23
		c1.202,0,2.092,0.267,2.672,0.8c0.579,0.533,0.869,1.389,0.869,2.566v6.879L126.528,25.481L126.528,25.481z M123.079,24.405
		c0.95,0,1.696-0.261,2.239-0.782c0.543-0.52,0.814-1.251,0.814-2.189v-0.91l-1.527,0.064c-1.214,0.044-2.089,0.231-2.625,0.566
		c-0.537,0.334-0.805,0.854-0.805,1.559c0,0.552,0.167,0.972,0.502,1.259C122.01,24.261,122.478,24.405,123.079,24.405"/>
	<path clip-path="url(#SVGID_14_)" fill="#F9F9F9" d="M128.545,15.401h1.636l2.207,5.748c0.484,1.312,0.786,2.26,0.902,2.842h0.073
		c0.08-0.313,0.247-0.848,0.501-1.606c0.254-0.757,1.087-3.085,2.497-6.984H138l-4.333,11.477c-0.429,1.135-0.93,1.939-1.504,2.415
		c-0.573,0.475-1.277,0.712-2.11,0.712c-0.466,0-0.926-0.052-1.38-0.156v-1.223c0.338,0.074,0.715,0.11,1.132,0.11
		c1.049,0,1.796-0.588,2.244-1.766l0.561-1.434L128.545,15.401z"/>
	<path clip-path="url(#SVGID_14_)" fill="#F9F9F9" d="M81.751,16.338c0.485,0.401,1.496,1.243,1.496,2.847
		c0,1.559-0.886,2.298-1.772,2.993c-0.274,0.274-0.59,0.57-0.59,1.034c0,0.463,0.315,0.716,0.548,0.906l0.76,0.589
		c0.927,0.78,1.77,1.498,1.77,2.953c0,1.982-1.919,3.984-5.544,3.984c-3.057,0-4.532-1.454-4.532-3.015
		c0-0.759,0.378-1.833,1.623-2.572c1.306-0.801,3.078-0.905,4.026-0.97c-0.296-0.379-0.633-0.78-0.633-1.432
		c0-0.358,0.106-0.569,0.211-0.824c-0.233,0.021-0.464,0.043-0.675,0.043c-2.234,0-3.499-1.666-3.499-3.31
		c0-0.97,0.443-2.045,1.349-2.825c1.202-0.991,2.635-1.16,3.775-1.16h4.342l-1.349,0.759H81.751z M80.253,25.699
		c-0.168-0.022-0.274-0.022-0.484-0.022c-0.19,0-1.33,0.043-2.215,0.339c-0.464,0.168-1.813,0.674-1.813,2.171
		c0,1.496,1.456,2.573,3.712,2.573c2.023,0,3.099-0.972,3.099-2.278C82.552,27.405,81.856,26.838,80.253,25.699 M80.865,21.692
		c0.484-0.485,0.526-1.16,0.526-1.539c0-1.517-0.907-3.879-2.655-3.879c-0.549,0-1.139,0.274-1.476,0.696
		c-0.358,0.443-0.464,1.011-0.464,1.56c0,1.413,0.823,3.753,2.637,3.753C79.959,22.283,80.527,22.03,80.865,21.692"/>
	<path clip-path="url(#SVGID_14_)" fill="#F9F9F9" d="M68.478,25.362c-3.346,0-5.135-2.61-5.135-4.968
		c0-2.758,2.252-5.114,5.453-5.114c3.093,0,5.029,2.42,5.029,4.968C73.824,22.729,71.91,25.362,68.478,25.362 M71.109,23.657
		c0.506-0.674,0.632-1.516,0.632-2.337c0-1.853-0.884-5.389-3.494-5.389c-0.694,0-1.389,0.275-1.894,0.717
		c-0.821,0.735-0.969,1.662-0.969,2.568c0,2.083,1.031,5.513,3.579,5.513C69.784,24.729,70.626,24.33,71.109,23.657"/>
	<path clip-path="url(#SVGID_14_)" fill="#F9F9F9" d="M57.07,25.362c-3.347,0-5.137-2.61-5.137-4.968
		c0-2.758,2.253-5.114,5.452-5.114c3.094,0,5.031,2.42,5.031,4.968C62.416,22.729,60.501,25.362,57.07,25.362 M59.701,23.657
		c0.505-0.674,0.631-1.516,0.631-2.337c0-1.853-0.884-5.389-3.495-5.389c-0.694,0-1.389,0.275-1.894,0.717
		c-0.821,0.735-0.968,1.662-0.968,2.568c0,2.083,1.031,5.513,3.579,5.513C58.376,24.729,59.217,24.33,59.701,23.657"/>
	<path clip-path="url(#SVGID_14_)" fill="#F9F9F9" d="M50.325,25.031l-3.027,0.698c-1.228,0.191-2.328,0.359-3.491,0.359
		c-5.842,0-8.063-4.296-8.063-7.661c0-4.105,3.153-7.913,8.55-7.913c1.143,0,2.243,0.169,3.237,0.444
		c1.587,0.444,2.328,0.994,2.794,1.312l-1.757,1.672l-0.74,0.168l0.529-0.846c-0.719-0.698-2.033-1.989-4.529-1.989
		c-3.343,0-5.862,2.541-5.862,6.244c0,3.977,2.878,7.723,7.49,7.723c1.356,0,2.053-0.274,2.688-0.529v-3.406l-3.195,0.169
		l1.692-0.911h4.487l-0.55,0.528c-0.149,0.128-0.169,0.171-0.211,0.338c-0.022,0.191-0.042,0.805-0.042,1.016L50.325,25.031
		L50.325,25.031z"/>
	<path clip-path="url(#SVGID_14_)" fill="#F9F9F9" d="M88.439,24.422c-0.699-0.064-0.845-0.19-0.845-1.016v-0.233V11.429
		c0.004-0.046,0.007-0.092,0.011-0.137c0.085-0.74,0.297-0.867,0.953-1.249h-3.027l-1.588,0.762h1.618v0.009l-0.001-0.007v12.365
		v0.7c0,0.422-0.083,0.487-0.571,1.12h3.746l0.783-0.464C89.16,24.485,88.8,24.464,88.439,24.422"/>
	<path clip-path="url(#SVGID_14_)" fill="#F9F9F9" d="M97.051,24.616c-0.231,0.127-0.462,0.274-0.692,0.378
		c-0.694,0.315-1.409,0.4-2.04,0.4c-0.671,0-1.723-0.044-2.795-0.82c-1.491-1.052-2.143-2.859-2.143-4.435
		c0-3.257,2.648-4.854,4.813-4.854c0.757,0,1.535,0.189,2.166,0.589c1.049,0.692,1.323,1.596,1.469,2.079l-4.938,1.997l-1.618,0.126
		c0.525,2.669,2.332,4.223,4.329,4.223c1.072,0,1.85-0.378,2.564-0.734L97.051,24.616z M95.076,18.353
		c0.398-0.146,0.608-0.273,0.608-0.567c0-0.84-0.945-1.808-2.081-1.808c-0.841,0-2.417,0.652-2.417,2.921
		c0,0.357,0.042,0.735,0.064,1.114L95.076,18.353z"/>
	<polygon clip-path="url(#SVGID_14_)" fill="#F9F9F9" points="99.079,15.429 99.079,16.816 98.911,16.816 98.911,15.429 
		98.452,15.429 98.452,15.285 99.538,15.285 99.538,15.429 	"/>
	<polygon clip-path="url(#SVGID_14_)" fill="#F9F9F9" points="100.969,16.816 100.969,15.416 100.962,15.416 100.534,16.816 
		100.403,16.816 99.972,15.416 99.967,15.416 99.967,16.816 99.813,16.816 99.813,15.286 100.076,15.286 100.466,16.523 
		100.471,16.523 100.855,15.286 101.121,15.286 101.121,16.816 	"/>
	<path clip-path="url(#SVGID_14_)" fill="#F9F9FA" d="M39.948,6.394h-1.051c0-0.145-0.1-0.555-0.3-1.229h-1.518
		c-0.206,0.664-0.309,1.074-0.309,1.229h-0.989c0-0.085,0.256-0.787,0.768-2.104c0.511-1.317,0.767-2.042,0.767-2.175h1.242
		c0,0.125,0.232,0.84,0.695,2.144S39.948,6.276,39.948,6.394 M38.43,4.537c-0.375-1.13-0.562-1.742-0.562-1.833h-0.052
		c0,0.085-0.194,0.697-0.582,1.833H38.43z"/>
	<path clip-path="url(#SVGID_14_)" fill="#F9F9FA" d="M44.185,6.394h-0.811c0-0.09-0.302-0.564-0.904-1.423
		c-0.631-0.905-0.99-1.524-1.078-1.856H41.34c0.054,0.479,0.082,0.913,0.082,1.301c0,0.541,0.015,1.2,0.046,1.978H40.66
		c0.032-0.679,0.049-1.425,0.049-2.238c0-0.799-0.016-1.48-0.049-2.04h0.975c0,0.116,0.27,0.58,0.811,1.39
		c0.576,0.861,0.907,1.445,0.993,1.752h0.049c-0.053-0.488-0.079-0.926-0.079-1.314c0-0.593-0.016-1.203-0.046-1.827h0.821
		c-0.031,0.543-0.046,1.223-0.046,2.04C44.139,4.98,44.154,5.725,44.185,6.394"/>
	<path clip-path="url(#SVGID_14_)" fill="#F9F9FA" d="M48.947,4.107c0,0.622-0.199,1.165-0.598,1.63
		c-0.399,0.464-0.958,0.697-1.676,0.697c-0.324,0-0.771-0.014-1.34-0.039c0.028-0.662,0.043-1.408,0.043-2.238
		c0-0.798-0.015-1.478-0.043-2.041h0.575c0.095,0,0.234-0.003,0.421-0.009c0.186-0.006,0.307-0.01,0.365-0.01
		c0.791,0,1.364,0.197,1.72,0.591C48.77,3.082,48.947,3.554,48.947,4.107 M48.051,4.248c0-0.421-0.123-0.775-0.368-1.064
		c-0.246-0.287-0.621-0.431-1.125-0.431c-0.094,0-0.223,0.009-0.388,0.029c0.022,0.439,0.033,0.896,0.033,1.374
		c0,0.523,0.011,1.043,0.033,1.557c0.142,0.029,0.285,0.043,0.426,0.043c0.472,0,0.82-0.147,1.047-0.439
		C47.937,5.025,48.051,4.669,48.051,4.248"/>
	<path clip-path="url(#SVGID_14_)" fill="#F9F9FA" d="M53.339,6.394h-0.973c-0.254-0.775-0.449-1.254-0.585-1.436
		c-0.136-0.182-0.355-0.273-0.657-0.273c-0.127,0-0.249,0.001-0.365,0.004c0,0.563,0.01,1.131,0.03,1.705h-0.914
		c0.029-0.662,0.043-1.408,0.043-2.238c0-0.797-0.014-1.477-0.043-2.04h0.568c0.066,0,0.204-0.004,0.413-0.01
		c0.209-0.006,0.402-0.01,0.58-0.01c1.006,0,1.508,0.344,1.508,1.032c0,0.545-0.287,0.925-0.861,1.14v0.049
		c0.221,0.061,0.416,0.234,0.582,0.517C52.833,5.118,53.057,5.638,53.339,6.394 M52.107,3.371c0-0.436-0.28-0.654-0.841-0.654
		c-0.206,0-0.388,0.016-0.545,0.046c0.024,0.34,0.037,0.783,0.037,1.328c0.12,0.004,0.222,0.006,0.305,0.006
		C51.759,4.097,52.107,3.855,52.107,3.371"/>
	<path clip-path="url(#SVGID_14_)" fill="#F9F9FA" d="M58.05,4.176c0,0.672-0.206,1.23-0.618,1.673
		c-0.412,0.442-0.922,0.664-1.528,0.664c-0.578,0-1.063-0.203-1.453-0.609c-0.39-0.406-0.585-0.923-0.585-1.55
		c0-0.672,0.206-1.23,0.619-1.673c0.411-0.442,0.921-0.664,1.528-0.664c0.578,0,1.062,0.203,1.452,0.608
		C57.855,3.03,58.05,3.547,58.05,4.176 M57.143,4.271c0-0.458-0.117-0.829-0.351-1.114c-0.235-0.285-0.524-0.427-0.868-0.427
		c-0.32,0-0.591,0.143-0.815,0.43c-0.223,0.287-0.335,0.649-0.335,1.088c0,0.456,0.118,0.826,0.353,1.112
		c0.236,0.286,0.524,0.429,0.866,0.429c0.32,0,0.592-0.144,0.815-0.432C57.031,5.069,57.143,4.707,57.143,4.271"/>
	<path clip-path="url(#SVGID_14_)" fill="#F9F9FA" d="M59.908,6.394h-0.93c0.029-0.679,0.043-1.425,0.043-2.238
		c0-0.8-0.014-1.48-0.043-2.04h0.93c-0.029,0.552-0.043,1.232-0.043,2.04C59.865,4.982,59.879,5.728,59.908,6.394"/>
	<path clip-path="url(#SVGID_14_)" fill="#F9F9FA" d="M64.67,4.107c0,0.622-0.199,1.165-0.598,1.63
		c-0.399,0.464-0.958,0.697-1.676,0.697c-0.324,0-0.771-0.014-1.34-0.039c0.028-0.662,0.043-1.408,0.043-2.238
		c0-0.798-0.015-1.478-0.043-2.041h0.575c0.095,0,0.234-0.003,0.421-0.009c0.186-0.006,0.307-0.01,0.365-0.01
		c0.791,0,1.364,0.197,1.72,0.591C64.493,3.082,64.67,3.554,64.67,4.107 M63.774,4.248c0-0.421-0.123-0.775-0.368-1.064
		c-0.246-0.287-0.621-0.431-1.125-0.431c-0.094,0-0.223,0.009-0.388,0.029c0.022,0.439,0.033,0.896,0.033,1.374
		c0,0.523,0.011,1.043,0.033,1.557c0.142,0.029,0.285,0.043,0.426,0.043c0.472,0,0.82-0.147,1.047-0.439
		C63.66,5.025,63.774,4.669,63.774,4.248"/>
	<path clip-path="url(#SVGID_14_)" fill="#F9F9FA" d="M70.989,6.394h-1.051c0-0.145-0.1-0.555-0.3-1.229H68.12
		c-0.206,0.664-0.309,1.074-0.309,1.229h-0.989c0-0.085,0.256-0.787,0.768-2.104c0.511-1.317,0.767-2.042,0.767-2.175h1.242
		c0,0.125,0.232,0.84,0.695,2.144C70.757,5.564,70.989,6.276,70.989,6.394 M69.471,4.537c-0.375-1.13-0.562-1.742-0.562-1.833
		h-0.053c0,0.085-0.194,0.697-0.581,1.833H69.471z"/>
	<path clip-path="url(#SVGID_14_)" fill="#F9F9FA" d="M74.823,3.236c0,0.523-0.195,0.91-0.583,1.16
		c-0.389,0.25-0.866,0.375-1.431,0.375c-0.103,0-0.176-0.002-0.22-0.006c0,0.412,0.011,0.955,0.036,1.63h-0.923
		c0.028-0.633,0.042-1.379,0.042-2.238c0-0.788-0.014-1.469-0.042-2.04h0.571c0.081,0,0.237-0.004,0.467-0.01
		c0.23-0.006,0.429-0.01,0.598-0.01c0.416,0,0.768,0.095,1.054,0.283C74.679,2.567,74.823,2.853,74.823,3.236 M73.975,3.417
		c0-0.469-0.311-0.703-0.933-0.703c-0.156,0-0.32,0.016-0.493,0.049c0.024,0.414,0.037,0.883,0.037,1.407
		c0.054,0.004,0.118,0.006,0.19,0.006C73.575,4.176,73.975,3.923,73.975,3.417"/>
	<path clip-path="url(#SVGID_14_)" fill="#F9F9FA" d="M78.764,3.236c0,0.523-0.195,0.91-0.583,1.16
		c-0.388,0.25-0.866,0.375-1.431,0.375c-0.103,0-0.176-0.002-0.22-0.006c0,0.412,0.011,0.955,0.036,1.63h-0.923
		c0.028-0.633,0.042-1.379,0.042-2.238c0-0.788-0.014-1.469-0.042-2.04h0.571c0.081,0,0.237-0.004,0.467-0.01
		c0.23-0.006,0.429-0.01,0.598-0.01c0.416,0,0.768,0.095,1.054,0.283C78.62,2.567,78.764,2.853,78.764,3.236 M77.916,3.417
		c0-0.469-0.311-0.703-0.933-0.703c-0.156,0-0.32,0.016-0.493,0.049c0.024,0.414,0.037,0.883,0.037,1.407
		c0.054,0.004,0.118,0.006,0.19,0.006C77.516,4.176,77.916,3.923,77.916,3.417"/>
	<path clip-path="url(#SVGID_14_)" fill="#F9F9FA" d="M85.208,4.176c0,0.672-0.206,1.23-0.619,1.673s-0.921,0.664-1.528,0.664
		c-0.578,0-1.062-0.203-1.452-0.609c-0.39-0.406-0.585-0.923-0.585-1.55c0-0.672,0.206-1.23,0.618-1.673
		c0.412-0.442,0.922-0.664,1.528-0.664c0.578,0,1.063,0.203,1.452,0.608C85.012,3.03,85.208,3.547,85.208,4.176 M84.301,4.271
		c0-0.458-0.117-0.829-0.351-1.114c-0.234-0.285-0.524-0.427-0.868-0.427c-0.32,0-0.591,0.143-0.815,0.43
		c-0.223,0.287-0.335,0.649-0.335,1.088c0,0.456,0.118,0.826,0.353,1.112c0.236,0.286,0.524,0.429,0.866,0.429
		c0.32,0,0.592-0.144,0.815-0.432C84.189,5.069,84.301,4.707,84.301,4.271"/>
	<path clip-path="url(#SVGID_14_)" fill="#F9F9FA" d="M89.661,6.394H88.85c0-0.09-0.301-0.564-0.904-1.423
		c-0.631-0.905-0.99-1.524-1.078-1.856h-0.052c0.054,0.479,0.082,0.913,0.082,1.301c0,0.541,0.015,1.2,0.046,1.978h-0.808
		c0.032-0.679,0.049-1.425,0.049-2.238c0-0.799-0.016-1.48-0.049-2.04h0.975c0,0.116,0.271,0.58,0.811,1.39
		c0.577,0.861,0.907,1.445,0.993,1.752h0.049c-0.053-0.488-0.079-0.926-0.079-1.314c0-0.593-0.016-1.203-0.046-1.827h0.821
		c-0.031,0.543-0.046,1.223-0.046,2.04C89.616,4.98,89.631,5.725,89.661,6.394"/>
</g>
</svg>
